# xmcd CD database file
#
# Track frame offsets:
#	225
#	16737
#	28979
#	41037
#	54869
#	66825
#	78069
#	90311
#	101646
#	114966
#	129720
#	146861
#	160826
#	173035
#	187150
#	200534
#	216702
#	229418
#
# Disc length: 3252 seconds
#
# Revision: 10
# Processed by: cddbd v1.5.2PL0 Copyright (c) Steve Scherf et al.
# Submitted via: CDex 1.51
#
DISCID=000cb112
DTITLE=Ronny - Seine Schönsten Lieder CD.1
DYEAR=1995
DGENRE=Country
TTITLE0=01 - Ronny - Sierra Madre del Sur
TTITLE1=02 - Ronny - Oh, my darling Caroline
TTITLE2=03 - Ronny - Kein Gold im Blue River
TTITLE3=04 - Ronny -  Darling, good night
TTITLE4=05 - Ronny - Anja, Anja
TTITLE5=06 - Ronny - Das Haus am alten Ohio
TTITLE6=07 - Ronny - Lass die Sonne wieder scheinen
TTITLE7=08 - Ronny - Sie war so wunderbar
TTITLE8=09 - Ronny - Good morning my sweet Adalita
TTITLE9=10 - Ronny - Doch dann kamst du
TTITLE10=11 - Ronny - Sag warum willst Du von mir gehen...
TTITLE11=12 - Ronny - Laura, oh Laura
TTITLE12=13 - Ronny - Es geht alles vorbei
TTITLE13=14 - Ronny - Ich denk an dich
TTITLE14=15 - Ronny - Die Sonne geht unter, die Sonne geht auf
TTITLE15=16 - Ronny - Wolga Lied aus der "Zarewitsch"
TTITLE16=17 - Ronny - Hohe Tannen
TTITLE17=18 - Ronny - Adios, my darling
EXTD=YEAR: 1995
EXTT0=
EXTT1=
EXTT2=
EXTT3=
EXTT4=
EXTT5=
EXTT6=
EXTT7=
EXTT8=
EXTT9=
EXTT10=
EXTT11=
EXTT12=
EXTT13=
EXTT14=
EXTT15=
EXTT16=
EXTT17=
PLAYORDER=
